<svg width="116" height="24" viewBox="0 0 116 24" fill="none" xmlns="http://www.w3.org/2000/svg">
<g opacity="0.5">
<path d="M13.6333 6.22375C13.9311 5.92599 14.4136 5.92599 14.7114 6.22375L14.9771 6.4884C15.2746 6.7861 15.2745 7.26877 14.9771 7.56653L10.0464 12.4972L14.9771 17.4279C15.2746 17.7256 15.2746 18.2082 14.9771 18.506L14.7114 18.7716C14.4137 19.0691 13.931 19.0691 13.6333 18.7716L7.89795 13.0363C7.60055 12.7385 7.60049 12.2558 7.89795 11.9581L13.6333 6.22375Z" fill="white"/>
<path d="M34.624 18V16.464H37.84C38.4267 16.464 38.88 16.304 39.2 15.984C39.52 15.6533 39.68 15.2053 39.68 14.64C39.68 14.0533 39.5093 13.5893 39.168 13.248C38.8267 12.9067 38.352 12.736 37.744 12.736H34.624V11.2H37.6C38.176 11.2 38.6187 11.0613 38.928 10.784C39.2373 10.5067 39.392 10.1067 39.392 9.584C39.392 9.072 39.2427 8.68267 38.944 8.416C38.656 8.14933 38.2293 8.016 37.664 8.016H34.624V6.48H38.048C39.0827 6.48 39.9093 6.74133 40.528 7.264C41.1573 7.776 41.472 8.47467 41.472 9.36C41.472 9.91467 41.3387 10.4 41.072 10.816C40.816 11.2213 40.4693 11.536 40.032 11.76C39.5947 11.984 39.0987 12.096 38.544 12.096L38.624 11.76C39.2107 11.76 39.744 11.8933 40.224 12.16C40.704 12.416 41.0827 12.7787 41.36 13.248C41.648 13.7173 41.792 14.2613 41.792 14.88C41.792 15.5093 41.6427 16.0587 41.344 16.528C41.056 16.9973 40.6453 17.36 40.112 17.616C39.5893 17.872 38.9707 18 38.256 18H34.624ZM32.992 18V6.48H35.072V18H32.992ZM45.962 18.16C45.3967 18.16 44.906 18.0427 44.49 17.808C44.0847 17.5627 43.77 17.232 43.546 16.816C43.3327 16.4 43.226 15.9307 43.226 15.408V9.84H45.242V14.992C45.242 15.4933 45.3647 15.872 45.61 16.128C45.866 16.384 46.2233 16.512 46.682 16.512C47.098 16.512 47.4607 16.416 47.77 16.224C48.09 16.032 48.3407 15.7653 48.522 15.424C48.714 15.072 48.81 14.6773 48.81 14.24L49.018 16.192C48.7513 16.7893 48.3513 17.2693 47.818 17.632C47.2953 17.984 46.6767 18.16 45.962 18.16ZM48.874 18V16.08H48.81V9.84H50.842V18H48.874ZM56.5173 18.16C55.5146 18.16 54.7733 17.9253 54.2933 17.456C53.8239 16.976 53.5893 16.2613 53.5893 15.312V7.984L55.6213 7.232V15.36C55.6213 15.7547 55.7279 16.048 55.9413 16.24C56.1546 16.432 56.4906 16.528 56.9493 16.528C57.1306 16.528 57.2906 16.5173 57.4293 16.496C57.5786 16.464 57.7173 16.4267 57.8453 16.384V17.952C57.7173 18.016 57.5359 18.064 57.3013 18.096C57.0666 18.1387 56.8053 18.16 56.5173 18.16ZM52.0213 11.424V9.84H57.8453V11.424H52.0213ZM63.1266 18.16C62.124 18.16 61.3826 17.9253 60.9026 17.456C60.4333 16.976 60.1986 16.2613 60.1986 15.312V7.984L62.2306 7.232V15.36C62.2306 15.7547 62.3373 16.048 62.5506 16.24C62.764 16.432 63.1 16.528 63.5586 16.528C63.74 16.528 63.9 16.5173 64.0386 16.496C64.188 16.464 64.3266 16.4267 64.4546 16.384V17.952C64.3266 18.016 64.1453 18.064 63.9106 18.096C63.676 18.1387 63.4146 18.16 63.1266 18.16ZM58.6306 11.424V9.84H64.4546V11.424H58.6306ZM69.4246 18.16C68.5606 18.16 67.798 17.9787 67.1366 17.616C66.486 17.2533 65.9793 16.752 65.6166 16.112C65.254 15.4613 65.0726 14.72 65.0726 13.888C65.0726 13.056 65.254 12.3253 65.6166 11.696C65.9793 11.0667 66.486 10.576 67.1366 10.224C67.798 9.86133 68.5606 9.68 69.4246 9.68C70.2993 9.68 71.062 9.86133 71.7126 10.224C72.3633 10.576 72.87 11.0667 73.2326 11.696C73.5953 12.3253 73.7766 13.056 73.7766 13.888C73.7766 14.72 73.59 15.4613 73.2166 16.112C72.854 16.752 72.3473 17.2533 71.6966 17.616C71.046 17.9787 70.2886 18.16 69.4246 18.16ZM69.4246 16.544C69.8513 16.544 70.2353 16.4373 70.5766 16.224C70.918 16 71.1846 15.6907 71.3766 15.296C71.5686 14.8907 71.6646 14.416 71.6646 13.872C71.6646 13.072 71.4513 12.4427 71.0246 11.984C70.6086 11.5253 70.0753 11.296 69.4246 11.296C68.774 11.296 68.2353 11.5253 67.8086 11.984C67.382 12.4427 67.1686 13.072 67.1686 13.872C67.1686 14.416 67.2646 14.8907 67.4566 15.296C67.6593 15.6907 67.926 16 68.2566 16.224C68.598 16.4373 68.9873 16.544 69.4246 16.544ZM75.2595 18V9.84H77.2275V11.76H77.2755V18H75.2595ZM80.9875 18V12.848C80.9875 12.3467 80.8595 11.968 80.6035 11.712C80.3475 11.456 79.9742 11.328 79.4835 11.328C79.0568 11.328 78.6728 11.424 78.3315 11.616C78.0008 11.808 77.7395 12.0747 77.5475 12.416C77.3662 12.7573 77.2755 13.152 77.2755 13.6L77.0675 11.648C77.3448 11.0507 77.7502 10.576 78.2835 10.224C78.8168 9.86133 79.4568 9.68 80.2035 9.68C81.0888 9.68 81.7768 9.93067 82.2675 10.432C82.7688 10.9333 83.0195 11.6 83.0195 12.432V18H80.9875Z" fill="white"/>
<path d="M100.488 6.22351C100.786 5.92573 101.27 5.92573 101.567 6.22351L107.302 11.9579C107.6 12.2557 107.6 12.7392 107.302 13.037L101.567 18.7714C101.27 19.0691 100.786 19.0691 100.488 18.7714L100.224 18.5057C99.926 18.2079 99.9259 17.7253 100.224 17.4276L105.154 12.4969L100.224 7.56726C99.9259 7.26948 99.9259 6.78594 100.224 6.48816L100.488 6.22351ZM100.92 6.20984L100.921 6.21082L100.92 6.20984ZM101.136 6.21082L101.135 6.20984L101.136 6.21082Z" fill="white"/>
</g>
</svg>
