<svg width="354" height="89" viewBox="0 0 354 89" fill="none" xmlns="http://www.w3.org/2000/svg">
<rect width="354" height="56" rx="18" fill="white" fill-opacity="0.05"/>
<rect x="0.5" y="0.5" width="353" height="55" rx="17.5" stroke="white" stroke-opacity="0.2"/>
<path d="M36.7168 24.7207C36.9319 24.5476 37.2468 24.5818 37.4199 24.7968C37.593 25.0119 37.5588 25.3268 37.3438 25.5L33.4238 28.6552L33.419 28.6601C32.496 29.3835 31.2012 29.3836 30.2783 28.6601L30.2754 28.6572L26.3223 25.5009C26.1065 25.3287 26.0711 25.0146 26.2432 24.7988C26.4154 24.583 26.7295 24.5476 26.9453 24.7197L30.8955 27.873L31.0029 27.9502C31.5531 28.3108 32.2761 28.2849 32.8018 27.873L36.7168 24.7207Z" fill="white"/>
<path d="M36.1611 19.5L36.4199 19.5098C37.7112 19.5906 38.9267 20.1653 39.8125 21.1211C40.7506 22.1334 41.2373 23.4853 41.1641 24.8652V30.8643C41.2371 32.2439 40.7504 33.5953 39.8125 34.6074C38.8677 35.6269 37.5481 36.213 36.1611 36.2285H27.4922C24.4817 36.2285 22.5002 33.7681 22.5 30.8643V24.8652C22.5 21.9612 24.4815 19.5 27.4922 19.5H36.1611ZM23.5 30.8643C23.5002 33.3242 25.1365 35.2285 27.4922 35.2285H36.1494C37.2609 35.216 38.3202 34.7466 39.0791 33.9277C39.8379 33.1088 40.2307 32.0123 40.165 30.8936C40.1645 30.8839 40.1641 30.8739 40.1641 30.8643V24.8652C40.1641 24.8555 40.1645 24.8456 40.165 24.8359C40.2308 23.717 39.8381 22.6198 39.0791 21.8008C38.3676 21.0331 37.3924 20.5727 36.3574 20.5078L36.1494 20.5H27.4922C25.1363 20.5 23.5 22.4051 23.5 24.8652V30.8643Z" fill="white"/>
<path d="M55.036 33.5V23.42H56.52V33.5H55.036ZM55.764 33.5V32.282H62.036V33.5H55.764ZM55.764 28.894V27.676H61.532V28.894H55.764ZM55.764 24.638V23.42H61.91V24.638H55.764ZM62.8697 30.322V29.062H67.8117V30.322H62.8697ZM69.87 33.5V23.42H74.14C74.868 23.42 75.4887 23.5413 76.002 23.784C76.5153 24.0267 76.9073 24.372 77.178 24.82C77.458 25.268 77.598 25.8 77.598 26.416C77.598 27.0413 77.458 27.5827 77.178 28.04C76.9073 28.488 76.5107 28.838 75.988 29.09C75.4747 29.342 74.8587 29.468 74.14 29.468H71.004V28.236H74.07C74.7327 28.236 75.2367 28.0773 75.582 27.76C75.9367 27.4427 76.114 26.9993 76.114 26.43C76.114 25.8513 75.9413 25.408 75.596 25.1C75.2507 24.792 74.742 24.638 74.07 24.638H71.354V33.5H69.87ZM81.8234 33.64C81.0954 33.64 80.456 33.4813 79.9054 33.164C79.3547 32.8373 78.9254 32.394 78.6174 31.834C78.3094 31.2647 78.1554 30.6207 78.1554 29.902C78.1554 29.174 78.3094 28.5347 78.6174 27.984C78.9347 27.4333 79.364 27.004 79.9054 26.696C80.456 26.3787 81.0954 26.22 81.8234 26.22C82.5607 26.22 83.2047 26.3787 83.7554 26.696C84.306 27.004 84.7307 27.4333 85.0294 27.984C85.3374 28.5347 85.4914 29.174 85.4914 29.902C85.4914 30.6207 85.3374 31.2647 85.0294 31.834C84.7307 32.394 84.306 32.8373 83.7554 33.164C83.2047 33.4813 82.5607 33.64 81.8234 33.64ZM81.8234 32.45C82.262 32.45 82.64 32.3427 82.9574 32.128C83.284 31.9133 83.5407 31.6147 83.7274 31.232C83.914 30.8493 84.0074 30.4013 84.0074 29.888C84.0074 29.1227 83.802 28.5207 83.3914 28.082C82.99 27.634 82.4674 27.41 81.8234 27.41C81.1887 27.41 80.666 27.634 80.2554 28.082C79.854 28.53 79.6534 29.132 79.6534 29.888C79.6534 30.4013 79.742 30.8493 79.9194 31.232C80.106 31.6147 80.3627 31.9133 80.6894 32.128C81.0254 32.3427 81.4034 32.45 81.8234 32.45ZM89.5765 33.64C88.6432 33.64 87.9012 33.4347 87.3505 33.024C86.7998 32.6133 86.4872 32.0347 86.4125 31.288H87.7565C87.8218 31.6987 88.0085 32.016 88.3165 32.24C88.6338 32.4547 89.0632 32.562 89.6045 32.562C90.0805 32.562 90.4445 32.478 90.6965 32.31C90.9485 32.142 91.0745 31.904 91.0745 31.596C91.0745 31.372 90.9998 31.1853 90.8505 31.036C90.7105 30.8773 90.4305 30.7467 90.0105 30.644L88.8625 30.378C88.1438 30.2007 87.6072 29.9393 87.2525 29.594C86.9072 29.2393 86.7345 28.8053 86.7345 28.292C86.7345 27.648 86.9725 27.144 87.4485 26.78C87.9338 26.4067 88.5965 26.22 89.4365 26.22C90.2672 26.22 90.9345 26.4067 91.4385 26.78C91.9518 27.1533 92.2412 27.676 92.3065 28.348H90.9625C90.9065 28.012 90.7432 27.7553 90.4725 27.578C90.2112 27.3913 89.8518 27.298 89.3945 27.298C88.9652 27.298 88.6338 27.3773 88.4005 27.536C88.1765 27.6853 88.0645 27.8953 88.0645 28.166C88.0645 28.39 88.1485 28.5767 88.3165 28.726C88.4938 28.8753 88.7832 29.0013 89.1845 29.104L90.3605 29.398C91.0418 29.566 91.5552 29.8413 91.9005 30.224C92.2458 30.5973 92.4185 31.05 92.4185 31.582C92.4185 32.226 92.1665 32.73 91.6625 33.094C91.1678 33.458 90.4725 33.64 89.5765 33.64ZM96.7924 33.64C95.9618 33.64 95.3504 33.4487 94.9584 33.066C94.5758 32.674 94.3844 32.1 94.3844 31.344V24.722L95.8264 24.176V31.358C95.8264 31.7313 95.9244 32.0067 96.1204 32.184C96.3164 32.3613 96.6338 32.45 97.0724 32.45C97.2404 32.45 97.3898 32.436 97.5204 32.408C97.6511 32.38 97.7631 32.3473 97.8564 32.31V33.486C97.7538 33.5327 97.6091 33.57 97.4224 33.598C97.2358 33.626 97.0258 33.64 96.7924 33.64ZM92.9564 27.522V26.36H97.8564V27.522H92.9564ZM103.62 33.5C103.573 33.3227 103.54 33.1267 103.522 32.912C103.512 32.6973 103.508 32.436 103.508 32.128H103.438V28.726C103.438 28.2687 103.321 27.928 103.088 27.704C102.864 27.4707 102.504 27.354 102.01 27.354C101.534 27.354 101.151 27.4473 100.862 27.634C100.582 27.8207 100.418 28.0867 100.372 28.432H98.9858C99.0512 27.76 99.3545 27.2233 99.8958 26.822C100.437 26.4207 101.16 26.22 102.066 26.22C102.999 26.22 103.699 26.4393 104.166 26.878C104.632 27.3073 104.866 27.942 104.866 28.782V32.128C104.866 32.3427 104.88 32.562 104.908 32.786C104.936 33.01 104.978 33.248 105.034 33.5H103.62ZM101.156 33.64C100.428 33.64 99.8492 33.4627 99.4198 33.108C98.9905 32.744 98.7758 32.254 98.7758 31.638C98.7758 31.0033 98.9998 30.504 99.4478 30.14C99.9052 29.7667 100.558 29.5147 101.408 29.384L103.76 29.006V30.028L101.632 30.364C101.156 30.4387 100.796 30.5647 100.554 30.742C100.32 30.9193 100.204 31.176 100.204 31.512C100.204 31.8387 100.311 32.086 100.526 32.254C100.75 32.4127 101.072 32.492 101.492 32.492C102.052 32.492 102.514 32.3567 102.878 32.086C103.251 31.8153 103.438 31.4747 103.438 31.064L103.62 32.1C103.452 32.5947 103.153 32.9773 102.724 33.248C102.294 33.5093 101.772 33.64 101.156 33.64Z" fill="#F47171"/>
<path d="M312.42 28.7132C312.284 28.4975 312.216 28.3897 312.178 28.2234C312.149 28.0985 312.149 27.9015 312.178 27.7766C312.216 27.6103 312.284 27.5025 312.42 27.2868C313.546 25.5048 316.895 21 322 21C327.105 21 330.455 25.5048 331.581 27.2868C331.717 27.5025 331.785 27.6103 331.823 27.7766C331.852 27.9015 331.852 28.0985 331.823 28.2234C331.785 28.3897 331.717 28.4975 331.581 28.7132C330.455 30.4952 327.105 35 322 35C316.895 35 313.546 30.4952 312.42 28.7132Z" stroke="white" stroke-opacity="0.3" stroke-linecap="round" stroke-linejoin="round"/>
<path d="M322 31C323.657 31 325 29.6569 325 28C325 26.3431 323.657 25 322 25C320.344 25 319 26.3431 319 28C319 29.6569 320.344 31 322 31Z" stroke="white" stroke-opacity="0.3" stroke-linecap="round" stroke-linejoin="round"/>
<path d="M13.96 78V77.048H17.18C17.796 77.048 18.286 76.88 18.65 76.544C19.014 76.208 19.196 75.7553 19.196 75.186C19.196 74.5793 19.0047 74.094 18.622 73.73C18.2393 73.366 17.726 73.184 17.082 73.184H13.96V72.26H16.928C17.5627 72.26 18.0573 72.106 18.412 71.798C18.7667 71.49 18.944 71.056 18.944 70.496C18.944 69.9733 18.776 69.572 18.44 69.292C18.1133 69.012 17.6327 68.872 16.998 68.872H13.96V67.92H17.096C18.02 67.92 18.748 68.1393 19.28 68.578C19.8213 69.0167 20.092 69.614 20.092 70.37C20.092 70.846 19.9847 71.2707 19.77 71.644C19.5553 72.0173 19.2613 72.3113 18.888 72.526C18.5147 72.7313 18.0853 72.834 17.6 72.834L17.67 72.54C18.1833 72.54 18.6407 72.6613 19.042 72.904C19.4527 73.1467 19.7747 73.478 20.008 73.898C20.2507 74.3087 20.372 74.78 20.372 75.312C20.372 75.844 20.2413 76.3153 19.98 76.726C19.728 77.1273 19.3687 77.44 18.902 77.664C18.4353 77.888 17.894 78 17.278 78H13.96ZM13.204 78V67.92H14.352V78H13.204ZM22.1708 78V70.86H23.2908V78H22.1708ZM22.0868 69.236V67.92H23.3748V69.236H22.0868ZM25.5341 78V70.86H26.5841V72.68H26.6541V78H25.5341ZM26.6541 74.276L26.4721 72.582C26.6401 71.9753 26.9387 71.5133 27.3681 71.196C27.7974 70.8787 28.2921 70.72 28.8521 70.72C29.0854 70.72 29.2441 70.7387 29.3281 70.776V71.854C29.2814 71.8353 29.2161 71.826 29.1321 71.826C29.0481 71.8167 28.9454 71.812 28.8241 71.812C28.1147 71.812 27.5734 72.0267 27.2001 72.456C26.8361 72.876 26.6541 73.4827 26.6541 74.276ZM37.4368 78.14C36.2235 78.14 35.2761 77.7713 34.5948 77.034C33.9228 76.2873 33.5868 75.2467 33.5868 73.912V67.92H34.7348V73.968C34.7348 74.976 34.9681 75.7507 35.4348 76.292C35.9015 76.8333 36.5688 77.104 37.4368 77.104C38.3235 77.104 39.0001 76.838 39.4668 76.306C39.9335 75.7647 40.1668 74.9853 40.1668 73.968V67.92H41.3148V73.926C41.3148 75.2513 40.9741 76.2873 40.2928 77.034C39.6115 77.7713 38.6595 78.14 37.4368 78.14ZM44.0329 80.87L45.6289 77.16L45.8809 76.768L48.2189 70.86H49.3669L45.2229 80.87H44.0329ZM45.7549 78.07L42.5489 70.86H43.7809L46.5389 77.314L45.7549 78.07ZM54.9083 78C54.8709 77.8413 54.8429 77.6593 54.8243 77.454C54.8149 77.2487 54.8103 76.9873 54.8103 76.67H54.7403V73.254C54.7403 72.7127 54.6143 72.316 54.3623 72.064C54.1196 71.8027 53.7229 71.672 53.1723 71.672C52.6309 71.672 52.1969 71.784 51.8703 72.008C51.5529 72.2227 51.3756 72.5307 51.3383 72.932H50.2603C50.3069 72.2413 50.5963 71.7 51.1283 71.308C51.6603 70.916 52.3556 70.72 53.2143 70.72C54.1009 70.72 54.7589 70.93 55.1883 71.35C55.6176 71.77 55.8323 72.4 55.8323 73.24V76.67C55.8323 76.8753 55.8463 77.09 55.8743 77.314C55.9023 77.5287 55.9396 77.7573 55.9863 78H54.9083ZM52.4583 78.14C51.7209 78.14 51.1329 77.9627 50.6943 77.608C50.2649 77.244 50.0503 76.7493 50.0503 76.124C50.0503 75.4987 50.2649 75.0133 50.6943 74.668C51.1236 74.3227 51.7489 74.08 52.5703 73.94L55.0623 73.52V74.444L52.7383 74.808C52.2156 74.892 51.8189 75.032 51.5483 75.228C51.2776 75.424 51.1423 75.7087 51.1423 76.082C51.1423 76.446 51.2636 76.7213 51.5063 76.908C51.7583 77.0947 52.1269 77.188 52.6123 77.188C53.2376 77.188 53.7463 77.048 54.1383 76.768C54.5396 76.4787 54.7403 76.1053 54.7403 75.648L54.9223 76.642C54.7729 77.118 54.4789 77.4867 54.0403 77.748C53.6109 78.0093 53.0836 78.14 52.4583 78.14ZM57.9911 78V70.86H59.0411V72.68H59.1111V78H57.9911ZM59.1111 74.276L58.9291 72.582C59.0971 71.9753 59.3958 71.5133 59.8251 71.196C60.2544 70.8787 60.7491 70.72 61.3091 70.72C61.5424 70.72 61.7011 70.7387 61.7851 70.776V71.854C61.7384 71.8353 61.6731 71.826 61.5891 71.826C61.5051 71.8167 61.4024 71.812 61.2811 71.812C60.5718 71.812 60.0304 72.0267 59.6571 72.456C59.2931 72.876 59.1111 73.4827 59.1111 74.276ZM63.0634 78V70.86H64.1834V78H63.0634ZM73.8494 78.14C72.8227 78.14 71.9314 77.93 71.1754 77.51C70.4194 77.09 69.836 76.502 69.4254 75.746C69.0147 74.9807 68.8094 74.08 68.8094 73.044C68.8094 72.008 69.01 71.098 69.4114 70.314C69.822 69.5207 70.3867 68.9 71.1054 68.452C71.8334 68.004 72.6687 67.78 73.6114 67.78C74.3487 67.78 75.016 67.92 75.6134 68.2C76.22 68.48 76.7147 68.8673 77.0974 69.362C77.4894 69.8567 77.7274 70.4307 77.8114 71.084H76.6634C76.57 70.3933 76.248 69.8427 75.6974 69.432C75.156 69.0213 74.4747 68.816 73.6534 68.816C72.916 68.816 72.272 68.9933 71.7214 69.348C71.1707 69.6933 70.7414 70.1787 70.4334 70.804C70.1347 71.4293 69.9854 72.1667 69.9854 73.016C69.9854 73.8653 70.1394 74.598 70.4474 75.214C70.7647 75.8207 71.2174 76.2873 71.8054 76.614C72.4027 76.9407 73.1167 77.104 73.9474 77.104C74.5167 77.104 75.0254 77.0247 75.4734 76.866C75.9214 76.698 76.3274 76.4413 76.6914 76.096L77.8394 76.516C77.326 77.0573 76.7334 77.4633 76.0614 77.734C75.3987 78.0047 74.6614 78.14 73.8494 78.14ZM76.6914 76.516V73.254L77.1254 73.688H73.9334V72.68H77.8394V76.516H76.6914ZM82.8605 78.14C82.1791 78.14 81.5771 77.9813 81.0545 77.664C80.5318 77.3373 80.1211 76.894 79.8225 76.334C79.5238 75.774 79.3745 75.13 79.3745 74.402C79.3745 73.674 79.5191 73.0347 79.8085 72.484C80.1071 71.924 80.5225 71.49 81.0545 71.182C81.5865 70.874 82.1978 70.72 82.8885 70.72C83.5511 70.72 84.1251 70.8647 84.6105 71.154C85.1051 71.4433 85.4831 71.8493 85.7445 72.372C86.0151 72.8947 86.1505 73.5107 86.1505 74.22C86.1505 74.3133 86.1458 74.402 86.1365 74.486C86.1365 74.57 86.1271 74.6633 86.1085 74.766H80.2145V73.828H85.4225L85.0585 74.346C85.0585 73.4873 84.8671 72.8293 84.4845 72.372C84.1111 71.9053 83.5791 71.672 82.8885 71.672C82.1791 71.672 81.6051 71.9193 81.1665 72.414C80.7371 72.8993 80.5225 73.5573 80.5225 74.388C80.5225 75.2373 80.7371 75.9187 81.1665 76.432C81.6051 76.936 82.1885 77.188 82.9165 77.188C83.3738 77.188 83.7751 77.09 84.1205 76.894C84.4658 76.6887 84.7178 76.3993 84.8765 76.026H85.9405C85.7071 76.6793 85.3151 77.1973 84.7645 77.58C84.2231 77.9533 83.5885 78.14 82.8605 78.14ZM87.8368 78V67.92H88.9568V78H87.8368ZM94.1261 78.14C93.4447 78.14 92.8427 77.9813 92.3201 77.664C91.7974 77.3373 91.3867 76.894 91.0881 76.334C90.7894 75.774 90.6401 75.13 90.6401 74.402C90.6401 73.674 90.7847 73.0347 91.0741 72.484C91.3727 71.924 91.7881 71.49 92.3201 71.182C92.8521 70.874 93.4634 70.72 94.1541 70.72C94.8167 70.72 95.3907 70.8647 95.8761 71.154C96.3707 71.4433 96.7487 71.8493 97.0101 72.372C97.2807 72.8947 97.4161 73.5107 97.4161 74.22C97.4161 74.3133 97.4114 74.402 97.4021 74.486C97.4021 74.57 97.3927 74.6633 97.3741 74.766H91.4801V73.828H96.6881L96.3241 74.346C96.3241 73.4873 96.1327 72.8293 95.7501 72.372C95.3767 71.9053 94.8447 71.672 94.1541 71.672C93.4447 71.672 92.8707 71.9193 92.4321 72.414C92.0027 72.8993 91.7881 73.5573 91.7881 74.388C91.7881 75.2373 92.0027 75.9187 92.4321 76.432C92.8707 76.936 93.4541 77.188 94.1821 77.188C94.6394 77.188 95.0407 77.09 95.3861 76.894C95.7314 76.6887 95.9834 76.3993 96.1421 76.026H97.2061C96.9727 76.6793 96.5807 77.1973 96.0301 77.58C95.4887 77.9533 94.8541 78.14 94.1261 78.14ZM102.63 78.126C101.958 78.126 101.394 77.9627 100.936 77.636C100.479 77.3093 100.166 76.8473 99.9984 76.25L100.152 76.222V78H99.1024V67.92H100.222V72.526L100.068 72.484C100.246 71.9333 100.568 71.504 101.034 71.196C101.51 70.8787 102.075 70.72 102.728 70.72C103.363 70.72 103.914 70.874 104.38 71.182C104.856 71.49 105.225 71.9193 105.486 72.47C105.748 73.0207 105.878 73.6647 105.878 74.402C105.878 75.1487 105.743 75.802 105.472 76.362C105.202 76.922 104.824 77.356 104.338 77.664C103.853 77.972 103.284 78.126 102.63 78.126ZM102.462 77.146C103.172 77.146 103.727 76.9033 104.128 76.418C104.53 75.9233 104.73 75.2513 104.73 74.402C104.73 73.562 104.53 72.904 104.128 72.428C103.727 71.9427 103.172 71.7 102.462 71.7C101.753 71.7 101.193 71.9473 100.782 72.442C100.372 72.9273 100.166 73.5947 100.166 74.444C100.166 75.2747 100.372 75.9327 100.782 76.418C101.193 76.9033 101.753 77.146 102.462 77.146ZM107.565 78V70.86H108.685V78H107.565ZM107.481 69.236V67.92H108.769V69.236H107.481ZM110.929 78V67.92H112.049V78H110.929ZM114.292 78V70.86H115.412V78H114.292ZM114.208 69.236V67.92H115.496V69.236H114.208ZM117.655 78V70.86H118.705V72.68H118.775V78H117.655ZM118.775 74.276L118.593 72.582C118.761 71.9753 119.06 71.5133 119.489 71.196C119.918 70.8787 120.413 70.72 120.973 70.72C121.206 70.72 121.365 70.7387 121.449 70.776V71.854C121.402 71.8353 121.337 71.826 121.253 71.826C121.169 71.8167 121.066 71.812 120.945 71.812C120.236 71.812 119.694 72.0267 119.321 72.456C118.957 72.876 118.775 73.4827 118.775 74.276Z" fill="#F47171"/>
</svg>
