<svg width="354" height="56" viewBox="0 0 354 56" fill="none" xmlns="http://www.w3.org/2000/svg">
<rect x="0.5" y="0.5" width="353" height="55" rx="17.5" fill="white" fill-opacity="0.05"/>
<rect x="0.5" y="0.5" width="353" height="55" rx="17.5" stroke="#E50914"/>
<path d="M36.7168 24.7207C36.9319 24.5476 37.2468 24.5818 37.4199 24.7968C37.593 25.0119 37.5588 25.3268 37.3438 25.5L33.4238 28.6552L33.419 28.6601C32.496 29.3835 31.2012 29.3836 30.2783 28.6601L30.2754 28.6572L26.3223 25.5009C26.1065 25.3287 26.0711 25.0146 26.2432 24.7988C26.4154 24.583 26.7295 24.5476 26.9453 24.7197L30.8955 27.873L31.0029 27.9502C31.5531 28.3108 32.2761 28.2849 32.8018 27.873L36.7168 24.7207Z" fill="white"/>
<path d="M36.1611 19.5L36.4199 19.5098C37.7112 19.5906 38.9267 20.1653 39.8125 21.1211C40.7506 22.1334 41.2373 23.4853 41.1641 24.8652V30.8643C41.2371 32.2439 40.7504 33.5953 39.8125 34.6074C38.8677 35.6269 37.5481 36.213 36.1611 36.2285H27.4922C24.4817 36.2285 22.5002 33.7681 22.5 30.8643V24.8652C22.5 21.9612 24.4815 19.5 27.4922 19.5H36.1611ZM23.5 30.8643C23.5002 33.3242 25.1365 35.2285 27.4922 35.2285H36.1494C37.2609 35.216 38.3202 34.7466 39.0791 33.9277C39.8379 33.1088 40.2307 32.0123 40.165 30.8936C40.1645 30.8839 40.1641 30.8739 40.1641 30.8643V24.8652C40.1641 24.8555 40.1645 24.8456 40.165 24.8359C40.2308 23.717 39.8381 22.6198 39.0791 21.8008C38.3676 21.0331 37.3924 20.5727 36.3574 20.5078L36.1494 20.5H27.4922C25.1363 20.5 23.5 22.4051 23.5 24.8652V30.8643Z" fill="white"/>
<path d="M55.204 33.5V23.42H56.352V33.5H55.204ZM55.792 33.5V32.492H61.952V33.5H55.792ZM55.792 28.754V27.746H61.448V28.754H55.792ZM55.792 24.428V23.42H61.84V24.428H55.792ZM62.9677 30.224V29.16H67.8117V30.224H62.9677ZM70.1337 33.5V23.42H74.1377C74.8564 23.42 75.4677 23.5367 75.9717 23.77C76.4757 24.0033 76.8584 24.3393 77.1197 24.778C77.3904 25.2167 77.5257 25.744 77.5257 26.36C77.5257 26.976 77.3904 27.508 77.1197 27.956C76.8584 28.3947 76.4757 28.7353 75.9717 28.978C75.4677 29.2207 74.8564 29.342 74.1377 29.342H70.9737V28.334H74.0957C74.8424 28.334 75.407 28.166 75.7897 27.83C76.1817 27.4847 76.3777 26.9947 76.3777 26.36C76.3777 25.7253 76.1864 25.2447 75.8037 24.918C75.421 24.5913 74.8517 24.428 74.0957 24.428H71.2817V33.5H70.1337ZM81.7814 33.64C81.0814 33.64 80.4654 33.4767 79.9334 33.15C79.4014 32.8233 78.986 32.38 78.6874 31.82C78.398 31.2507 78.2534 30.6113 78.2534 29.902C78.2534 29.1833 78.4027 28.5487 78.7014 27.998C79 27.4473 79.4107 27.0133 79.9334 26.696C80.4654 26.3787 81.0814 26.22 81.7814 26.22C82.4907 26.22 83.1067 26.3787 83.6294 26.696C84.1614 27.0133 84.572 27.4473 84.8614 27.998C85.16 28.5487 85.3094 29.1833 85.3094 29.902C85.3094 30.6113 85.16 31.2507 84.8614 31.82C84.572 32.38 84.1614 32.8233 83.6294 33.15C83.1067 33.4767 82.4907 33.64 81.7814 33.64ZM81.7814 32.688C82.2667 32.688 82.6867 32.5713 83.0414 32.338C83.396 32.0953 83.6714 31.764 83.8674 31.344C84.0634 30.924 84.1614 30.4387 84.1614 29.888C84.1614 29.0667 83.942 28.4087 83.5034 27.914C83.074 27.4193 82.5 27.172 81.7814 27.172C81.072 27.172 80.498 27.4193 80.0594 27.914C79.6207 28.4087 79.4014 29.0667 79.4014 29.888C79.4014 30.4387 79.4994 30.924 79.6954 31.344C79.8914 31.764 80.1667 32.0953 80.5214 32.338C80.8854 32.5713 81.3054 32.688 81.7814 32.688ZM89.4111 33.64C88.5338 33.64 87.8338 33.4393 87.3111 33.038C86.7885 32.6273 86.4898 32.0487 86.4151 31.302H87.4931C87.5585 31.7593 87.7591 32.1093 88.0951 32.352C88.4311 32.5947 88.8791 32.716 89.4391 32.716C89.9338 32.716 90.3211 32.6227 90.6011 32.436C90.8811 32.2493 91.0211 31.9833 91.0211 31.638C91.0211 31.3953 90.9418 31.1853 90.7831 31.008C90.6245 30.8213 90.3071 30.6673 89.8311 30.546L88.6831 30.252C88.0298 30.084 87.5398 29.8273 87.2131 29.482C86.8865 29.1273 86.7231 28.7073 86.7231 28.222C86.7231 27.606 86.9518 27.1207 87.4091 26.766C87.8665 26.402 88.4871 26.22 89.2711 26.22C90.0458 26.22 90.6758 26.4067 91.1611 26.78C91.6465 27.1533 91.9218 27.6713 91.9871 28.334H90.9091C90.8438 27.9513 90.6665 27.6573 90.3771 27.452C90.0878 27.2467 89.7051 27.144 89.2291 27.144C88.7718 27.144 88.4171 27.2327 88.1651 27.41C87.9131 27.578 87.7871 27.8207 87.7871 28.138C87.7871 28.3807 87.8758 28.5907 88.0531 28.768C88.2398 28.9453 88.5478 29.0947 88.9771 29.216L90.0971 29.524C90.7598 29.7013 91.2591 29.972 91.5951 30.336C91.9311 30.7 92.0991 31.1387 92.0991 31.652C92.0991 32.2773 91.8611 32.7673 91.3851 33.122C90.9091 33.4673 90.2511 33.64 89.4111 33.64ZM96.4623 33.626C95.669 33.626 95.0903 33.4487 94.7263 33.094C94.3717 32.73 94.1943 32.2073 94.1943 31.526V24.694L95.3143 24.274V31.512C95.3143 31.9133 95.417 32.2073 95.6223 32.394C95.8277 32.5807 96.1637 32.674 96.6303 32.674C96.817 32.674 96.9757 32.6647 97.1063 32.646C97.2463 32.618 97.3583 32.5853 97.4423 32.548V33.5C97.349 33.5373 97.2137 33.5653 97.0363 33.584C96.8683 33.612 96.677 33.626 96.4623 33.626ZM92.7243 27.312V26.36H97.4423V27.312H92.7243ZM103.266 33.5C103.228 33.3413 103.2 33.1593 103.182 32.954C103.172 32.7487 103.168 32.4873 103.168 32.17H103.098V28.754C103.098 28.2127 102.972 27.816 102.72 27.564C102.477 27.3027 102.08 27.172 101.53 27.172C100.988 27.172 100.554 27.284 100.228 27.508C99.9103 27.7227 99.733 28.0307 99.6957 28.432H98.6177C98.6643 27.7413 98.9537 27.2 99.4857 26.808C100.018 26.416 100.713 26.22 101.572 26.22C102.458 26.22 103.116 26.43 103.546 26.85C103.975 27.27 104.19 27.9 104.19 28.74V32.17C104.19 32.3753 104.204 32.59 104.232 32.814C104.26 33.0287 104.297 33.2573 104.344 33.5H103.266ZM100.816 33.64C100.078 33.64 99.4903 33.4627 99.0517 33.108C98.6223 32.744 98.4077 32.2493 98.4077 31.624C98.4077 30.9987 98.6223 30.5133 99.0517 30.168C99.481 29.8227 100.106 29.58 100.928 29.44L103.42 29.02V29.944L101.096 30.308C100.573 30.392 100.176 30.532 99.9057 30.728C99.635 30.924 99.4997 31.2087 99.4997 31.582C99.4997 31.946 99.621 32.2213 99.8637 32.408C100.116 32.5947 100.484 32.688 100.97 32.688C101.595 32.688 102.104 32.548 102.496 32.268C102.897 31.9787 103.098 31.6053 103.098 31.148L103.28 32.142C103.13 32.618 102.836 32.9867 102.398 33.248C101.968 33.5093 101.441 33.64 100.816 33.64Z" fill="white"/>
<path d="M312.42 28.7132C312.284 28.4975 312.216 28.3897 312.178 28.2234C312.149 28.0985 312.149 27.9015 312.178 27.7766C312.216 27.6103 312.284 27.5025 312.42 27.2868C313.546 25.5048 316.895 21 322 21C327.105 21 330.455 25.5048 331.581 27.2868C331.717 27.5025 331.785 27.6103 331.823 27.7766C331.852 27.9015 331.852 28.0985 331.823 28.2234C331.785 28.3897 331.717 28.4975 331.581 28.7132C330.455 30.4952 327.105 35 322 35C316.895 35 313.546 30.4952 312.42 28.7132Z" stroke="white" stroke-opacity="0.3" stroke-linecap="round" stroke-linejoin="round"/>
<path d="M322 31C323.657 31 325 29.6569 325 28C325 26.3431 323.657 25 322 25C320.344 25 319 26.3431 319 28C319 29.6569 320.344 31 322 31Z" stroke="white" stroke-opacity="0.3" stroke-linecap="round" stroke-linejoin="round"/>
</svg>
