<svg width="354" height="56" viewBox="0 0 354 56" fill="none" xmlns="http://www.w3.org/2000/svg">
<rect width="354" height="56" rx="18" fill="white" fill-opacity="0.05"/>
<rect x="0.5" y="0.5" width="353" height="55" rx="17.5" stroke="white" stroke-opacity="0.2"/>
<path d="M36.7168 24.7207C36.9319 24.5476 37.2468 24.5818 37.4199 24.7968C37.593 25.0119 37.5588 25.3268 37.3438 25.5L33.4238 28.6552L33.419 28.6601C32.496 29.3835 31.2012 29.3836 30.2783 28.6601L30.2754 28.6572L26.3223 25.5009C26.1065 25.3287 26.0711 25.0146 26.2432 24.7988C26.4154 24.583 26.7295 24.5476 26.9453 24.7197L30.8955 27.873L31.0029 27.9502C31.5531 28.3108 32.2761 28.2849 32.8018 27.873L36.7168 24.7207Z" fill="white"/>
<path d="M36.1611 19.5L36.4199 19.5098C37.7112 19.5906 38.9267 20.1653 39.8125 21.1211C40.7506 22.1334 41.2373 23.4853 41.1641 24.8652V30.8643C41.2371 32.2439 40.7504 33.5953 39.8125 34.6074C38.8677 35.6269 37.5481 36.213 36.1611 36.2285H27.4922C24.4817 36.2285 22.5002 33.7681 22.5 30.8643V24.8652C22.5 21.9612 24.4815 19.5 27.4922 19.5H36.1611ZM23.5 30.8643C23.5002 33.3242 25.1365 35.2285 27.4922 35.2285H36.1494C37.2609 35.216 38.3202 34.7466 39.0791 33.9277C39.8379 33.1088 40.2307 32.0123 40.165 30.8936C40.1645 30.8839 40.1641 30.8739 40.1641 30.8643V24.8652C40.1641 24.8555 40.1645 24.8456 40.165 24.8359C40.2308 23.717 39.8381 22.6198 39.0791 21.8008C38.3676 21.0331 37.3924 20.5727 36.3574 20.5078L36.1494 20.5H27.4922C25.1363 20.5 23.5 22.4051 23.5 24.8652V30.8643Z" fill="white"/>
<path d="M55.036 33.5V23.42H56.52V33.5H55.036ZM55.764 33.5V32.282H62.036V33.5H55.764ZM55.764 28.894V27.676H61.532V28.894H55.764ZM55.764 24.638V23.42H61.91V24.638H55.764ZM62.8697 30.322V29.062H67.8117V30.322H62.8697ZM69.87 33.5V23.42H74.14C74.868 23.42 75.4887 23.5413 76.002 23.784C76.5153 24.0267 76.9073 24.372 77.178 24.82C77.458 25.268 77.598 25.8 77.598 26.416C77.598 27.0413 77.458 27.5827 77.178 28.04C76.9073 28.488 76.5107 28.838 75.988 29.09C75.4747 29.342 74.8587 29.468 74.14 29.468H71.004V28.236H74.07C74.7327 28.236 75.2367 28.0773 75.582 27.76C75.9367 27.4427 76.114 26.9993 76.114 26.43C76.114 25.8513 75.9413 25.408 75.596 25.1C75.2507 24.792 74.742 24.638 74.07 24.638H71.354V33.5H69.87ZM81.8234 33.64C81.0954 33.64 80.456 33.4813 79.9054 33.164C79.3547 32.8373 78.9254 32.394 78.6174 31.834C78.3094 31.2647 78.1554 30.6207 78.1554 29.902C78.1554 29.174 78.3094 28.5347 78.6174 27.984C78.9347 27.4333 79.364 27.004 79.9054 26.696C80.456 26.3787 81.0954 26.22 81.8234 26.22C82.5607 26.22 83.2047 26.3787 83.7554 26.696C84.306 27.004 84.7307 27.4333 85.0294 27.984C85.3374 28.5347 85.4914 29.174 85.4914 29.902C85.4914 30.6207 85.3374 31.2647 85.0294 31.834C84.7307 32.394 84.306 32.8373 83.7554 33.164C83.2047 33.4813 82.5607 33.64 81.8234 33.64ZM81.8234 32.45C82.262 32.45 82.64 32.3427 82.9574 32.128C83.284 31.9133 83.5407 31.6147 83.7274 31.232C83.914 30.8493 84.0074 30.4013 84.0074 29.888C84.0074 29.1227 83.802 28.5207 83.3914 28.082C82.99 27.634 82.4674 27.41 81.8234 27.41C81.1887 27.41 80.666 27.634 80.2554 28.082C79.854 28.53 79.6534 29.132 79.6534 29.888C79.6534 30.4013 79.742 30.8493 79.9194 31.232C80.106 31.6147 80.3627 31.9133 80.6894 32.128C81.0254 32.3427 81.4034 32.45 81.8234 32.45ZM89.5765 33.64C88.6432 33.64 87.9012 33.4347 87.3505 33.024C86.7998 32.6133 86.4872 32.0347 86.4125 31.288H87.7565C87.8218 31.6987 88.0085 32.016 88.3165 32.24C88.6338 32.4547 89.0632 32.562 89.6045 32.562C90.0805 32.562 90.4445 32.478 90.6965 32.31C90.9485 32.142 91.0745 31.904 91.0745 31.596C91.0745 31.372 90.9998 31.1853 90.8505 31.036C90.7105 30.8773 90.4305 30.7467 90.0105 30.644L88.8625 30.378C88.1438 30.2007 87.6072 29.9393 87.2525 29.594C86.9072 29.2393 86.7345 28.8053 86.7345 28.292C86.7345 27.648 86.9725 27.144 87.4485 26.78C87.9338 26.4067 88.5965 26.22 89.4365 26.22C90.2672 26.22 90.9345 26.4067 91.4385 26.78C91.9518 27.1533 92.2412 27.676 92.3065 28.348H90.9625C90.9065 28.012 90.7432 27.7553 90.4725 27.578C90.2112 27.3913 89.8518 27.298 89.3945 27.298C88.9652 27.298 88.6338 27.3773 88.4005 27.536C88.1765 27.6853 88.0645 27.8953 88.0645 28.166C88.0645 28.39 88.1485 28.5767 88.3165 28.726C88.4938 28.8753 88.7832 29.0013 89.1845 29.104L90.3605 29.398C91.0418 29.566 91.5552 29.8413 91.9005 30.224C92.2458 30.5973 92.4185 31.05 92.4185 31.582C92.4185 32.226 92.1665 32.73 91.6625 33.094C91.1678 33.458 90.4725 33.64 89.5765 33.64ZM96.7924 33.64C95.9618 33.64 95.3504 33.4487 94.9584 33.066C94.5758 32.674 94.3844 32.1 94.3844 31.344V24.722L95.8264 24.176V31.358C95.8264 31.7313 95.9244 32.0067 96.1204 32.184C96.3164 32.3613 96.6338 32.45 97.0724 32.45C97.2404 32.45 97.3898 32.436 97.5204 32.408C97.6511 32.38 97.7631 32.3473 97.8564 32.31V33.486C97.7538 33.5327 97.6091 33.57 97.4224 33.598C97.2358 33.626 97.0258 33.64 96.7924 33.64ZM92.9564 27.522V26.36H97.8564V27.522H92.9564ZM103.62 33.5C103.573 33.3227 103.54 33.1267 103.522 32.912C103.512 32.6973 103.508 32.436 103.508 32.128H103.438V28.726C103.438 28.2687 103.321 27.928 103.088 27.704C102.864 27.4707 102.504 27.354 102.01 27.354C101.534 27.354 101.151 27.4473 100.862 27.634C100.582 27.8207 100.418 28.0867 100.372 28.432H98.9858C99.0512 27.76 99.3545 27.2233 99.8958 26.822C100.437 26.4207 101.16 26.22 102.066 26.22C102.999 26.22 103.699 26.4393 104.166 26.878C104.632 27.3073 104.866 27.942 104.866 28.782V32.128C104.866 32.3427 104.88 32.562 104.908 32.786C104.936 33.01 104.978 33.248 105.034 33.5H103.62ZM101.156 33.64C100.428 33.64 99.8492 33.4627 99.4198 33.108C98.9905 32.744 98.7758 32.254 98.7758 31.638C98.7758 31.0033 98.9998 30.504 99.4478 30.14C99.9052 29.7667 100.558 29.5147 101.408 29.384L103.76 29.006V30.028L101.632 30.364C101.156 30.4387 100.796 30.5647 100.554 30.742C100.32 30.9193 100.204 31.176 100.204 31.512C100.204 31.8387 100.311 32.086 100.526 32.254C100.75 32.4127 101.072 32.492 101.492 32.492C102.052 32.492 102.514 32.3567 102.878 32.086C103.251 31.8153 103.438 31.4747 103.438 31.064L103.62 32.1C103.452 32.5947 103.153 32.9773 102.724 33.248C102.294 33.5093 101.772 33.64 101.156 33.64Z" fill="white"/>
<path d="M312.42 28.7132C312.284 28.4975 312.216 28.3897 312.178 28.2234C312.149 28.0985 312.149 27.9015 312.178 27.7766C312.216 27.6103 312.284 27.5025 312.42 27.2868C313.546 25.5048 316.895 21 322 21C327.105 21 330.455 25.5048 331.581 27.2868C331.717 27.5025 331.785 27.6103 331.823 27.7766C331.852 27.9015 331.852 28.0985 331.823 28.2234C331.785 28.3897 331.717 28.4975 331.581 28.7132C330.455 30.4952 327.105 35 322 35C316.895 35 313.546 30.4952 312.42 28.7132Z" stroke="white" stroke-opacity="0.3" stroke-linecap="round" stroke-linejoin="round"/>
<path d="M322 31C323.657 31 325 29.6569 325 28C325 26.3431 323.657 25 322 25C320.344 25 319 26.3431 319 28C319 29.6569 320.344 31 322 31Z" stroke="white" stroke-opacity="0.3" stroke-linecap="round" stroke-linejoin="round"/>
</svg>
