<svg width="402" height="100" viewBox="0 0 402 100" fill="none" xmlns="http://www.w3.org/2000/svg">
<rect width="402" height="100" fill="url(#paint0_linear_14007_1666)"/>
<rect x="24" y="16" width="169" height="48" rx="24" fill="url(#paint1_radial_14007_1666)"/>
<rect x="24.5" y="16.5" width="168" height="47" rx="23.5" stroke="white" stroke-opacity="0.2"/>
<path d="M70.1348 48.7733V45.7156C70.1348 44.9351 70.7722 44.3023 71.5584 44.3023H74.4326C74.8102 44.3023 75.1723 44.4512 75.4393 44.7163C75.7063 44.9813 75.8563 45.3408 75.8563 45.7156V48.7733C75.8539 49.0978 75.9821 49.4099 76.2124 49.6402C76.4427 49.8705 76.7561 50 77.0829 50H79.0438C79.9596 50.0023 80.8388 49.6428 81.4872 49.0008C82.1356 48.3588 82.5 47.487 82.5 46.5778V37.8669C82.5 37.1325 82.1721 36.4358 81.6046 35.9647L74.934 30.6759C73.7737 29.7486 72.1111 29.7785 70.9854 30.747L64.467 35.9647C63.8727 36.422 63.5176 37.1206 63.5 37.8669V46.5689C63.5 48.4639 65.0474 50 66.9562 50H68.8723C69.5512 50 70.103 49.4562 70.1079 48.7822L70.1348 48.7733Z" fill="white"/>
<path d="M95.448 45.5L99.242 35.42H100.53L96.904 45.5H95.448ZM103.246 45.5L99.62 35.42H100.978L104.786 45.5H103.246ZM97.366 41.482H102.77V42.714H97.366V41.482ZM106.262 45.5V38.36H107.648V40.04H107.718V45.5H106.262ZM111.33 45.5V40.908C111.33 40.4133 111.204 40.0447 110.952 39.802C110.71 39.5593 110.346 39.438 109.86 39.438C109.44 39.438 109.067 39.5313 108.74 39.718C108.423 39.9047 108.171 40.1613 107.984 40.488C107.807 40.8147 107.718 41.202 107.718 41.65L107.536 39.942C107.77 39.41 108.129 38.99 108.614 38.682C109.1 38.374 109.664 38.22 110.308 38.22C111.074 38.22 111.676 38.4347 112.114 38.864C112.553 39.2933 112.772 39.8627 112.772 40.572V45.5H111.33ZM119.094 45.5C119.048 45.3227 119.015 45.1267 118.996 44.912C118.987 44.6973 118.982 44.436 118.982 44.128H118.912V40.726C118.912 40.2687 118.796 39.928 118.562 39.704C118.338 39.4707 117.979 39.354 117.484 39.354C117.008 39.354 116.626 39.4473 116.336 39.634C116.056 39.8207 115.893 40.0867 115.846 40.432H114.46C114.526 39.76 114.829 39.2233 115.37 38.822C115.912 38.4207 116.635 38.22 117.54 38.22C118.474 38.22 119.174 38.4393 119.64 38.878C120.107 39.3073 120.34 39.942 120.34 40.782V44.128C120.34 44.3427 120.354 44.562 120.382 44.786C120.41 45.01 120.452 45.248 120.508 45.5H119.094ZM116.63 45.64C115.902 45.64 115.324 45.4627 114.894 45.108C114.465 44.744 114.25 44.254 114.25 43.638C114.25 43.0033 114.474 42.504 114.922 42.14C115.38 41.7667 116.033 41.5147 116.882 41.384L119.234 41.006V42.028L117.106 42.364C116.63 42.4387 116.271 42.5647 116.028 42.742C115.795 42.9193 115.678 43.176 115.678 43.512C115.678 43.8387 115.786 44.086 116 44.254C116.224 44.4127 116.546 44.492 116.966 44.492C117.526 44.492 117.988 44.3567 118.352 44.086C118.726 43.8153 118.912 43.4747 118.912 43.064L119.094 44.1C118.926 44.5947 118.628 44.9773 118.198 45.248C117.769 45.5093 117.246 45.64 116.63 45.64ZM124.807 45.64C123.874 45.64 123.132 45.4347 122.581 45.024C122.03 44.6133 121.718 44.0347 121.643 43.288H122.987C123.052 43.6987 123.239 44.016 123.547 44.24C123.864 44.4547 124.294 44.562 124.835 44.562C125.311 44.562 125.675 44.478 125.927 44.31C126.179 44.142 126.305 43.904 126.305 43.596C126.305 43.372 126.23 43.1853 126.081 43.036C125.941 42.8773 125.661 42.7467 125.241 42.644L124.093 42.378C123.374 42.2007 122.838 41.9393 122.483 41.594C122.138 41.2393 121.965 40.8053 121.965 40.292C121.965 39.648 122.203 39.144 122.679 38.78C123.164 38.4067 123.827 38.22 124.667 38.22C125.498 38.22 126.165 38.4067 126.669 38.78C127.182 39.1533 127.472 39.676 127.537 40.348H126.193C126.137 40.012 125.974 39.7553 125.703 39.578C125.442 39.3913 125.082 39.298 124.625 39.298C124.196 39.298 123.864 39.3773 123.631 39.536C123.407 39.6853 123.295 39.8953 123.295 40.166C123.295 40.39 123.379 40.5767 123.547 40.726C123.724 40.8753 124.014 41.0013 124.415 41.104L125.591 41.398C126.272 41.566 126.786 41.8413 127.131 42.224C127.476 42.5973 127.649 43.05 127.649 43.582C127.649 44.226 127.397 44.73 126.893 45.094C126.398 45.458 125.703 45.64 124.807 45.64ZM133.6 45.5C133.554 45.3227 133.521 45.1267 133.502 44.912C133.493 44.6973 133.488 44.436 133.488 44.128H133.418V40.726C133.418 40.2687 133.302 39.928 133.068 39.704C132.844 39.4707 132.485 39.354 131.99 39.354C131.514 39.354 131.132 39.4473 130.842 39.634C130.562 39.8207 130.399 40.0867 130.352 40.432H128.966C129.032 39.76 129.335 39.2233 129.876 38.822C130.418 38.4207 131.141 38.22 132.046 38.22C132.98 38.22 133.68 38.4393 134.146 38.878C134.613 39.3073 134.846 39.942 134.846 40.782V44.128C134.846 44.3427 134.86 44.562 134.888 44.786C134.916 45.01 134.958 45.248 135.014 45.5H133.6ZM131.136 45.64C130.408 45.64 129.83 45.4627 129.4 45.108C128.971 44.744 128.756 44.254 128.756 43.638C128.756 43.0033 128.98 42.504 129.428 42.14C129.886 41.7667 130.539 41.5147 131.388 41.384L133.74 41.006V42.028L131.612 42.364C131.136 42.4387 130.777 42.5647 130.534 42.742C130.301 42.9193 130.184 43.176 130.184 43.512C130.184 43.8387 130.292 44.086 130.506 44.254C130.73 44.4127 131.052 44.492 131.472 44.492C132.032 44.492 132.494 44.3567 132.858 44.086C133.232 43.8153 133.418 43.4747 133.418 43.064L133.6 44.1C133.432 44.5947 133.134 44.9773 132.704 45.248C132.275 45.5093 131.752 45.64 131.136 45.64ZM136.982 48.37L138.704 44.436L138.998 43.974L141.168 38.36H142.68L138.48 48.37H136.982ZM138.634 45.5L135.582 38.36H137.164L139.754 44.786L138.634 45.5ZM144.612 45.5V37.534C144.612 36.806 144.817 36.2507 145.228 35.868C145.638 35.476 146.254 35.28 147.076 35.28C147.262 35.28 147.416 35.2893 147.538 35.308C147.659 35.3267 147.766 35.3547 147.86 35.392V36.512C147.794 36.4933 147.706 36.4747 147.594 36.456C147.491 36.4373 147.374 36.428 147.244 36.428C146.833 36.428 146.534 36.5307 146.348 36.736C146.161 36.932 146.068 37.212 146.068 37.576V45.5H144.612ZM143.24 39.522V38.36H147.706V39.522H143.24ZM153.247 45.5C153.2 45.3227 153.167 45.1267 153.149 44.912C153.139 44.6973 153.135 44.436 153.135 44.128H153.065V40.726C153.065 40.2687 152.948 39.928 152.715 39.704C152.491 39.4707 152.131 39.354 151.637 39.354C151.161 39.354 150.778 39.4473 150.489 39.634C150.209 39.8207 150.045 40.0867 149.999 40.432H148.613C148.678 39.76 148.981 39.2233 149.523 38.822C150.064 38.4207 150.787 38.22 151.693 38.22C152.626 38.22 153.326 38.4393 153.793 38.878C154.259 39.3073 154.493 39.942 154.493 40.782V44.128C154.493 44.3427 154.507 44.562 154.535 44.786C154.563 45.01 154.605 45.248 154.661 45.5H153.247ZM150.783 45.64C150.055 45.64 149.476 45.4627 149.047 45.108C148.617 44.744 148.403 44.254 148.403 43.638C148.403 43.0033 148.627 42.504 149.075 42.14C149.532 41.7667 150.185 41.5147 151.035 41.384L153.387 41.006V42.028L151.259 42.364C150.783 42.4387 150.423 42.5647 150.181 42.742C149.947 42.9193 149.831 43.176 149.831 43.512C149.831 43.8387 149.938 44.086 150.153 44.254C150.377 44.4127 150.699 44.492 151.119 44.492C151.679 44.492 152.141 44.3567 152.505 44.086C152.878 43.8153 153.065 43.4747 153.065 43.064L153.247 44.1C153.079 44.5947 152.78 44.9773 152.351 45.248C151.921 45.5093 151.399 45.64 150.783 45.64Z" fill="white"/>
<rect x="209.5" y="16.5" width="168" height="47" rx="23.5" stroke="white" stroke-opacity="0.2"/>
<path fill-rule="evenodd" clip-rule="evenodd" d="M270.985 43.3462C267.117 43.3462 263.814 43.931 263.814 46.2729C263.814 48.6148 267.096 49.2205 270.985 49.2205C274.852 49.2205 278.154 48.6348 278.154 46.2938C278.154 43.9529 274.873 43.3462 270.985 43.3462Z" stroke="white" stroke-linecap="round" stroke-linejoin="round"/>
<path fill-rule="evenodd" clip-rule="evenodd" d="M270.985 40.0059C273.523 40.0059 275.58 37.9478 275.58 35.4097C275.58 32.8716 273.523 30.8145 270.985 30.8145C268.447 30.8145 266.388 32.8716 266.388 35.4097C266.38 37.9392 268.424 39.9973 270.952 40.0059H270.985Z" stroke="white" stroke-linecap="round" stroke-linejoin="round"/>
<path d="M294.036 45.5V35.42H298.306C299.034 35.42 299.655 35.5413 300.168 35.784C300.681 36.0267 301.073 36.372 301.344 36.82C301.624 37.268 301.764 37.8 301.764 38.416C301.764 39.0413 301.624 39.5827 301.344 40.04C301.073 40.488 300.677 40.838 300.154 41.09C299.641 41.342 299.025 41.468 298.306 41.468H295.17V40.236H298.236C298.899 40.236 299.403 40.0773 299.748 39.76C300.103 39.4427 300.28 38.9993 300.28 38.43C300.28 37.8513 300.107 37.408 299.762 37.1C299.417 36.792 298.908 36.638 298.236 36.638H295.52V45.5H294.036ZM303.278 45.5V38.36H304.664V40.138H304.734V45.5H303.278ZM304.734 41.776L304.552 40.082C304.72 39.4753 305.009 39.0133 305.42 38.696C305.831 38.3787 306.321 38.22 306.89 38.22C307.105 38.22 307.254 38.2387 307.338 38.276V39.648C307.291 39.6293 307.226 39.62 307.142 39.62C307.058 39.6107 306.955 39.606 306.834 39.606C306.134 39.606 305.607 39.788 305.252 40.152C304.907 40.516 304.734 41.0573 304.734 41.776ZM311.704 45.64C310.976 45.64 310.337 45.4813 309.786 45.164C309.236 44.8373 308.806 44.394 308.498 43.834C308.19 43.2647 308.036 42.6207 308.036 41.902C308.036 41.174 308.19 40.5347 308.498 39.984C308.816 39.4333 309.245 39.004 309.786 38.696C310.337 38.3787 310.976 38.22 311.704 38.22C312.442 38.22 313.086 38.3787 313.636 38.696C314.187 39.004 314.612 39.4333 314.91 39.984C315.218 40.5347 315.372 41.174 315.372 41.902C315.372 42.6207 315.218 43.2647 314.91 43.834C314.612 44.394 314.187 44.8373 313.636 45.164C313.086 45.4813 312.442 45.64 311.704 45.64ZM311.704 44.45C312.143 44.45 312.521 44.3427 312.838 44.128C313.165 43.9133 313.422 43.6147 313.608 43.232C313.795 42.8493 313.888 42.4013 313.888 41.888C313.888 41.1227 313.683 40.5207 313.272 40.082C312.871 39.634 312.348 39.41 311.704 39.41C311.07 39.41 310.547 39.634 310.136 40.082C309.735 40.53 309.534 41.132 309.534 41.888C309.534 42.4013 309.623 42.8493 309.8 43.232C309.987 43.6147 310.244 43.9133 310.57 44.128C310.906 44.3427 311.284 44.45 311.704 44.45ZM317.346 45.5V37.534C317.346 36.806 317.551 36.2507 317.962 35.868C318.373 35.476 318.989 35.28 319.81 35.28C319.997 35.28 320.151 35.2893 320.272 35.308C320.393 35.3267 320.501 35.3547 320.594 35.392V36.554C320.529 36.5353 320.44 36.5167 320.328 36.498C320.225 36.4793 320.109 36.47 319.978 36.47C319.567 36.47 319.269 36.5727 319.082 36.778C318.895 36.974 318.802 37.254 318.802 37.618V45.5H317.346ZM321.896 45.5V38.36H323.338V45.5H321.896ZM315.974 39.578V38.36H322.484V39.578H315.974ZM321.84 37.016V35.42H323.394V37.016H321.84ZM325.208 45.5V35.42H326.664V45.5H325.208Z" fill="white"/>
<defs>
<linearGradient id="paint0_linear_14007_1666" x1="201" y1="0" x2="201" y2="100" gradientUnits="userSpaceOnUse">
<stop stop-color="#090909" stop-opacity="0"/>
<stop offset="0.29" stop-color="#090909"/>
</linearGradient>
<radialGradient id="paint1_radial_14007_1666" cx="0" cy="0" r="1" gradientUnits="userSpaceOnUse" gradientTransform="translate(108.5 24) rotate(90) scale(40 99.2625)">
<stop stop-color="#E50914"/>
<stop offset="1" stop-color="#7F050B"/>
</radialGradient>
</defs>
</svg>
