<svg width="196" height="56" viewBox="0 0 196 56" fill="none" xmlns="http://www.w3.org/2000/svg">
<g opacity="0.5">
<rect width="196" height="56" rx="16" fill="white" fill-opacity="0.05"/>
<rect x="0.5" y="0.5" width="195" height="55" rx="15.5" stroke="white" stroke-opacity="0.2" stroke-linecap="round"/>
<path d="M53.6333 22.2239C53.9311 21.9261 54.4136 21.9261 54.7114 22.2239L54.9771 22.4885C55.2746 22.7862 55.2745 23.2689 54.9771 23.5667L50.0464 28.4973L54.9771 33.428C55.2746 33.7257 55.2746 34.2084 54.9771 34.5061L54.7114 34.7717C54.4137 35.0692 53.931 35.0693 53.6333 34.7717L47.8979 29.0364C47.6005 28.7386 47.6005 28.2559 47.8979 27.9583L53.6333 22.2239Z" fill="white"/>
<path d="M74.624 34V32.464H77.84C78.4267 32.464 78.88 32.304 79.2 31.984C79.52 31.6533 79.68 31.2053 79.68 30.64C79.68 30.0533 79.5093 29.5893 79.168 29.248C78.8267 28.9067 78.352 28.736 77.744 28.736H74.624V27.2H77.6C78.176 27.2 78.6187 27.0613 78.928 26.784C79.2373 26.5067 79.392 26.1067 79.392 25.584C79.392 25.072 79.2427 24.6827 78.944 24.416C78.656 24.1493 78.2293 24.016 77.664 24.016H74.624V22.48H78.048C79.0827 22.48 79.9093 22.7413 80.528 23.264C81.1573 23.776 81.472 24.4747 81.472 25.36C81.472 25.9147 81.3387 26.4 81.072 26.816C80.816 27.2213 80.4693 27.536 80.032 27.76C79.5947 27.984 79.0987 28.096 78.544 28.096L78.624 27.76C79.2107 27.76 79.744 27.8933 80.224 28.16C80.704 28.416 81.0827 28.7787 81.36 29.248C81.648 29.7173 81.792 30.2613 81.792 30.88C81.792 31.5093 81.6427 32.0587 81.344 32.528C81.056 32.9973 80.6453 33.36 80.112 33.616C79.5893 33.872 78.9707 34 78.256 34H74.624ZM72.992 34V22.48H75.072V34H72.992ZM85.962 34.16C85.3967 34.16 84.906 34.0427 84.49 33.808C84.0847 33.5627 83.77 33.232 83.546 32.816C83.3327 32.4 83.226 31.9307 83.226 31.408V25.84H85.242V30.992C85.242 31.4933 85.3647 31.872 85.61 32.128C85.866 32.384 86.2233 32.512 86.682 32.512C87.098 32.512 87.4607 32.416 87.77 32.224C88.09 32.032 88.3407 31.7653 88.522 31.424C88.714 31.072 88.81 30.6773 88.81 30.24L89.018 32.192C88.7513 32.7893 88.3513 33.2693 87.818 33.632C87.2953 33.984 86.6767 34.16 85.962 34.16ZM88.874 34V32.08H88.81V25.84H90.842V34H88.874ZM96.5173 34.16C95.5146 34.16 94.7733 33.9253 94.2933 33.456C93.8239 32.976 93.5893 32.2613 93.5893 31.312V23.984L95.6213 23.232V31.36C95.6213 31.7547 95.7279 32.048 95.9413 32.24C96.1546 32.432 96.4906 32.528 96.9493 32.528C97.1306 32.528 97.2906 32.5173 97.4293 32.496C97.5786 32.464 97.7173 32.4267 97.8453 32.384V33.952C97.7173 34.016 97.5359 34.064 97.3013 34.096C97.0666 34.1387 96.8053 34.16 96.5173 34.16ZM92.0213 27.424V25.84H97.8453V27.424H92.0213ZM103.127 34.16C102.124 34.16 101.383 33.9253 100.903 33.456C100.433 32.976 100.199 32.2613 100.199 31.312V23.984L102.231 23.232V31.36C102.231 31.7547 102.337 32.048 102.551 32.24C102.764 32.432 103.1 32.528 103.559 32.528C103.74 32.528 103.9 32.5173 104.039 32.496C104.188 32.464 104.327 32.4267 104.455 32.384V33.952C104.327 34.016 104.145 34.064 103.911 34.096C103.676 34.1387 103.415 34.16 103.127 34.16ZM98.6306 27.424V25.84H104.455V27.424H98.6306ZM109.425 34.16C108.561 34.16 107.798 33.9787 107.137 33.616C106.486 33.2533 105.979 32.752 105.617 32.112C105.254 31.4613 105.073 30.72 105.073 29.888C105.073 29.056 105.254 28.3253 105.617 27.696C105.979 27.0667 106.486 26.576 107.137 26.224C107.798 25.8613 108.561 25.68 109.425 25.68C110.299 25.68 111.062 25.8613 111.713 26.224C112.363 26.576 112.87 27.0667 113.233 27.696C113.595 28.3253 113.777 29.056 113.777 29.888C113.777 30.72 113.59 31.4613 113.217 32.112C112.854 32.752 112.347 33.2533 111.697 33.616C111.046 33.9787 110.289 34.16 109.425 34.16ZM109.425 32.544C109.851 32.544 110.235 32.4373 110.577 32.224C110.918 32 111.185 31.6907 111.377 31.296C111.569 30.8907 111.665 30.416 111.665 29.872C111.665 29.072 111.451 28.4427 111.025 27.984C110.609 27.5253 110.075 27.296 109.425 27.296C108.774 27.296 108.235 27.5253 107.809 27.984C107.382 28.4427 107.169 29.072 107.169 29.872C107.169 30.416 107.265 30.8907 107.457 31.296C107.659 31.6907 107.926 32 108.257 32.224C108.598 32.4373 108.987 32.544 109.425 32.544ZM115.26 34V25.84H117.228V27.76H117.276V34H115.26ZM120.988 34V28.848C120.988 28.3467 120.86 27.968 120.604 27.712C120.348 27.456 119.974 27.328 119.484 27.328C119.057 27.328 118.673 27.424 118.332 27.616C118.001 27.808 117.74 28.0747 117.548 28.416C117.366 28.7573 117.276 29.152 117.276 29.6L117.068 27.648C117.345 27.0507 117.75 26.576 118.284 26.224C118.817 25.8613 119.457 25.68 120.204 25.68C121.089 25.68 121.777 25.9307 122.267 26.432C122.769 26.9333 123.02 27.6 123.02 28.432V34H120.988Z" fill="white"/>
<path d="M140.488 22.2234C140.786 21.9256 141.27 21.9256 141.567 22.2234L147.302 27.9578C147.6 28.2555 147.6 28.7391 147.302 29.0369L141.567 34.7712C141.27 35.069 140.786 35.069 140.488 34.7712L140.224 34.5056C139.926 34.2078 139.926 33.7252 140.224 33.4275L145.154 28.4968L140.224 23.5671C139.926 23.2694 139.926 22.7858 140.224 22.488L140.488 22.2234ZM140.92 22.2097L140.921 22.2107L140.92 22.2097ZM141.136 22.2107L141.135 22.2097L141.136 22.2107Z" fill="white"/>
</g>
</svg>
